<svg width="17" height="20" viewBox="0 0 17 20" fill="none" xmlns="http://www.w3.org/2000/svg">
<path fill-rule="evenodd" clip-rule="evenodd" d="M9.62091 1.01266C9.62091 0.453382 9.11906 0 8.50001 0C7.88095 0 7.3791 0.453382 7.3791 1.01266V1.77215H6.7543C4.26021 1.77215 2.19596 3.52406 2.04027 5.77291L1.79255 9.35109C1.6981 10.7153 1.19113 12.03 0.326849 13.152C-0.454063 14.1657 0.241143 15.5658 1.59848 15.7129L5.41753 16.127V17.2152C5.41753 18.7532 6.7976 20 8.50001 20C10.2024 20 11.5825 18.7532 11.5825 17.2152V16.127L15.4015 15.7129C16.7589 15.5658 17.4541 14.1657 16.6732 13.152C15.8089 12.03 15.3019 10.7153 15.2074 9.35109L14.9597 5.7729C14.804 3.52406 12.7398 1.77215 10.2457 1.77215H9.62091V1.01266ZM7.09888 17.2152C7.09888 17.9143 7.72618 18.481 8.50001 18.481C9.27383 18.481 9.90113 17.9143 9.90113 17.2152V16.4557H7.09888V17.2152Z" fill="#384CFF"/>
</svg>
