<svg width="18" height="21" viewBox="0 0 18 21" fill="none" xmlns="http://www.w3.org/2000/svg">
<path d="M9 0C6.59489 0 4.64516 2.13954 4.64516 4.77879C4.64516 7.41805 6.59489 9.55759 9 9.55759C11.4051 9.55759 13.3548 7.41805 13.3548 4.77879C13.3548 2.13954 11.4051 0 9 0Z" fill="#384CFF"/>
<path d="M4.35484 12.1063C1.94973 12.1063 0 14.2458 0 16.8851V18.3994C0 19.3592 0.633929 20.1777 1.49722 20.3323C6.46618 21.2226 11.5338 21.2226 16.5028 20.3323C17.3661 20.1777 18 19.3592 18 18.3994V16.8851C18 14.2458 16.0503 12.1063 13.6452 12.1063H13.2493C13.0351 12.1063 12.8222 12.1435 12.6185 12.2164L11.6134 12.5766C9.91525 13.1851 8.08475 13.1851 6.38662 12.5766L5.3815 12.2164C5.17784 12.1435 4.96494 12.1063 4.75069 12.1063H4.35484Z" fill="#384CFF"/>
</svg>
