<svg width="80" height="30" viewBox="0 0 80 30" fill="none" xmlns="http://www.w3.org/2000/svg">
<rect width="80" height="30" rx="10" fill="#F9C50F" fill-opacity="0.1"/>
<path d="M12.67 5.05881L16.13 10.4286H8V9.97619C8 7.47905 10.025 5.41619 12.67 5.05881ZM22.63 10.4286H17.285L13.785 5H19.13L22.63 10.4286ZM29 9.97619V10.4286H23.785L20.285 5H23.5C26.54 5 29 7.22571 29 9.97619ZM8 11.3333V19.0238C8 21.7743 10.46 24 13.5 24H23.5C26.54 24 29 21.7743 29 19.0238V11.3333H8ZM21.5 17.7526L17.505 19.8064C16.84 20.1502 16 19.725 16 19.0419V14.9343C16 14.2512 16.84 13.826 17.505 14.1698L21.5 16.2236C22.165 16.5629 22.165 17.4133 21.5 17.7526Z" fill="#F9C50F"/>
<path d="M39.0605 19H40.373V15.748H42.2246L43.9473 19H45.4648L43.5664 15.543C44.5977 15.1973 45.207 14.2715 45.207 13.1348V13.123C45.207 11.5527 44.1289 10.5449 42.3945 10.5449H39.0605V19ZM40.373 14.6816V11.6465H42.2246C43.2383 11.6465 43.8594 12.2207 43.8594 13.1582V13.1699C43.8594 14.1309 43.2734 14.6816 42.2656 14.6816H40.373ZM49.4141 19.123C51.043 19.123 51.9219 18.1855 52.1328 17.3477L52.1445 17.2949L50.9199 17.3008L50.8965 17.3477C50.7441 17.6758 50.2578 18.0801 49.4434 18.0801C48.3945 18.0801 47.7266 17.3711 47.7031 16.1523H52.2148V15.707C52.2148 13.7969 51.125 12.5137 49.3496 12.5137C47.5742 12.5137 46.4258 13.8438 46.4258 15.8301V15.8359C46.4258 17.8516 47.5508 19.123 49.4141 19.123ZM49.3555 13.5566C50.2168 13.5566 50.8555 14.1074 50.9551 15.2441H47.7207C47.832 14.1484 48.4883 13.5566 49.3555 13.5566ZM56.3984 19.123C58.0273 19.123 58.9062 18.1855 59.1172 17.3477L59.1289 17.2949L57.9043 17.3008L57.8809 17.3477C57.7285 17.6758 57.2422 18.0801 56.4277 18.0801C55.3789 18.0801 54.7109 17.3711 54.6875 16.1523H59.1992V15.707C59.1992 13.7969 58.1094 12.5137 56.334 12.5137C54.5586 12.5137 53.4102 13.8438 53.4102 15.8301V15.8359C53.4102 17.8516 54.5352 19.123 56.3984 19.123ZM56.3398 13.5566C57.2012 13.5566 57.8398 14.1074 57.9395 15.2441H54.7051C54.8164 14.1484 55.4727 13.5566 56.3398 13.5566ZM60.7695 19H62.041V10.1406H60.7695V19ZM66.248 19.123C67.7598 19.123 68.8848 18.3203 68.8848 17.1426V17.1309C68.8848 16.2109 68.2988 15.6895 67.0742 15.4023L66.0664 15.1738C65.3516 15.0039 65.0586 14.7578 65.0586 14.3594V14.3477C65.0586 13.8379 65.5625 13.4922 66.2598 13.4922C66.9746 13.4922 67.4258 13.8262 67.5488 14.2715V14.2832H68.7617V14.2773C68.6504 13.2402 67.7188 12.5137 66.2656 12.5137C64.8242 12.5137 63.793 13.3105 63.793 14.418V14.4238C63.793 15.3555 64.3496 15.9004 65.5508 16.1758L66.5645 16.4102C67.3027 16.5801 67.6016 16.8496 67.6016 17.248V17.2598C67.6016 17.7812 67.0566 18.1387 66.2715 18.1387C65.5156 18.1387 65.0527 17.8164 64.8945 17.3359L64.8887 17.3301H63.6172V17.3359C63.7402 18.4023 64.7129 19.123 66.248 19.123Z" fill="#F9C50F"/>
</svg>
