<svg width="23" height="17" viewBox="0 0 23 17" fill="none" xmlns="http://www.w3.org/2000/svg">
<path fill-rule="evenodd" clip-rule="evenodd" d="M5.13453 0.194851C8.01817 -0.0875781 10.92 -0.0629265 13.7993 0.26846L14.5442 0.354187C15.9658 0.517808 17.11 1.69901 17.348 3.23639L21.3661 0.897973C21.6384 0.739502 21.9651 0.741135 22.2361 0.902322C22.507 1.06351 22.6862 1.36278 22.7131 1.69925L22.7436 2.08032C23.0855 6.35191 23.0855 10.6481 22.7436 14.9197L22.7131 15.3007C22.6862 15.6372 22.507 15.9365 22.2361 16.0977C21.9651 16.2588 21.6384 16.2605 21.3661 16.102L17.348 13.7636C17.11 15.301 15.9658 16.4822 14.5442 16.6458L13.7993 16.7315C10.92 17.0629 8.01818 17.0876 5.13453 16.8051L3.19584 16.6153C1.73501 16.4722 0.554693 15.2497 0.342524 13.66C-0.114175 10.2382 -0.114175 6.7618 0.342524 3.33996C0.554693 1.75028 1.73501 0.527806 3.19584 0.38473L5.13453 0.194851ZM17.5747 11.6773C17.6731 11.6942 17.7706 11.7291 17.8634 11.7831L20.9949 13.6056C21.2171 10.2062 21.2171 6.79378 20.9949 3.39441L17.8634 5.21688C17.7706 5.27091 17.6731 5.30575 17.5747 5.32267C17.7465 7.4367 17.7465 9.56329 17.5747 11.6773Z" fill="#384CFF"/>
</svg>
